<?xml version="1.0" encoding="utf-8"?>
<!-- Generator: Adobe Illustrator 21.0.0, SVG Export Plug-In . SVG Version: 6.00 Build 0)  -->
<svg version="1.1" id="Layer_1" xmlns="http://www.w3.org/2000/svg" xmlns:xlink="http://www.w3.org/1999/xlink" x="0px" y="0px"
	 viewBox="0 0 58 19.8" style="enable-background:new 0 0 58 19.8;" xml:space="preserve">
<style type="text/css">
	.st0{fill:#FFFFFF;}
	.st1{fill:#FFD522;}
</style>
<g>
	<g>
		<g>
			<path class="st0" d="M0,0h4c3,0,4.7,1.8,4.7,4.9v8.8c0,3.5-1.8,5.1-4.9,5.1H0V0z M2.7,16.2h1.2c1.5,0,2.1-0.8,2.1-2.3V4.8
				c0-1.5-0.5-2.3-2.1-2.3H2.7V16.2z"/>
		</g>
		<g>
			<path class="st0" d="M14,13.1v1.8c0,0.8,0.5,1.3,1.3,1.3c1,0,1.3-0.8,1.3-1.4h2.7c0,1.1-0.4,2.2-1.1,2.8
				c-0.7,0.8-1.7,1.2-2.9,1.2c-1.6,0-2.9-0.8-3.5-1.9c-0.4-0.7-0.5-1.6-0.5-2.7V9.9c0-1.1,0.1-2,0.5-2.7c0.6-1.2,1.9-1.9,3.5-1.9
				c2.5,0,4,1.8,4,4.2v3.7H14z M14,11h2.6V9.4c0-1-0.5-1.5-1.3-1.5c-0.8,0-1.3,0.5-1.3,1.5V11z"/>
		</g>
		<g>
			<path class="st0" d="M26.9,17.4L26.9,17.4c-0.8,1-1.3,1.5-2.6,1.5c-1.2,0-2.9-0.6-2.9-3.5c0-3.1,0.9-4.5,4.2-4.5
				c0.4,0,0.8,0,1.3,0.1V9.5c0-0.9-0.3-1.6-1.4-1.6c-0.7,0-1.4,0.5-1.5,1.4h-2.6c0.1-1.2,0.5-2.2,1.2-2.9s1.7-1.1,2.9-1.1
				c2.2,0,4,1.4,4,4.2v9.3h-2.7V17.4z M26.9,13c-0.3,0-0.5-0.1-0.8-0.1c-1.2,0-2.1,0.5-2.1,1.9c0,1,0.5,1.7,1.4,1.7
				c0.9,0,1.4-0.6,1.4-1.7L26.9,13L26.9,13z"/>
		</g>
		<g>
			<path class="st0" d="M32,0h2.7v15c0,1,0.3,1.3,1.3,1.4v2.6c-2.5,0-4-0.6-4-3.7V0z"/>
		</g>
	</g>
	<g>
		<rect x="43" y="17.8" class="st1" width="15" height="2"/>
	</g>
</g>
</svg>
